# Icosahedron test model
v -1.618034 0.000000 -1.000000
v -1.618034 0.000000 1.000000
v -1.000000 -1.618034 0.000000
v -1.000000 1.618034 0.000000
v 0.000000 -1.000000 -1.618034
v 0.000000 -1.000000 1.618034
v 0.000000 1.000000 -1.618034
v 0.000000 1.000000 1.618034
v 1.000000 -1.618034 0.000000
v 1.000000 1.618034 0.000000
v 1.618034 0.000000 -1.000000
v 1.618034 0.000000 1.000000
f 5 3 1
f 7 1 4
f 7 11 5
f 7 5 1
f 9 6 3
f 9 5 11
f 9 3 5
f 2 4 1
f 2 1 3
f 2 3 6
f 2 6 8
f 2 8 4
f 10 4 8
f 10 7 4
f 10 11 7
f 12 9 11
f 12 8 6
f 12 6 9
f 12 10 8
f 12 11 10